name GIL11_free1.mot
datacolumns 153
datarows 4
range 0.61666662 0.64166659
endheader

                time	           pelvis_tx	           pelvis_ty	           pelvis_tz	         pelvis_tilt	         pelvis_list	     pelvis_rotation	       hip_flexion_r	     hip_adduction_r	      hip_rotation_r	        knee_angle_r	       ankle_angle_r	    subtalar_angle_r	         mtp_angle_r	       hip_flexion_l	     hip_adduction_l	      hip_rotation_l	        knee_angle_l	       ankle_angle_l	    subtalar_angle_l	         mtp_angle_l	    lumbar_extension	      lumbar_bending	     lumbar_rotation	     ground_force_vx	     ground_force_vy	     ground_force_vz	     ground_force_px	     ground_force_py	     ground_force_pz	     ground_force_vx	     ground_force_vy	     ground_force_vz	     ground_force_px	     ground_force_py	     ground_force_pz	     ground_torque_x	     ground_torque_y	     ground_torque_z	     ground_torque_x	     ground_torque_y	     ground_torque_z	    ground_marker_px	    ground_marker_py	    ground_marker_pz	    ground_marker_px	    ground_marker_py	    ground_marker_pz	    ground_marker_px	    ground_marker_py	    ground_marker_pz	    ground_marker_px	    ground_marker_py	    ground_marker_pz	    ground_marker_px	    ground_marker_py	    ground_marker_pz	    ground_marker_px	    ground_marker_py	    ground_marker_pz	    ground_marker_px	    ground_marker_py	    ground_marker_pz	    ground_marker_px	    ground_marker_py	    ground_marker_pz	    ground_marker_px	    ground_marker_py	    ground_marker_pz	    ground_marker_px	    ground_marker_py	    ground_marker_pz	    ground_marker_px	    ground_marker_py	    ground_marker_pz	    ground_marker_px	    ground_marker_py	    ground_marker_pz	    ground_marker_px	    ground_marker_py	    ground_marker_pz	    ground_marker_px	    ground_marker_py	    ground_marker_pz	    ground_marker_px	    ground_marker_py	    ground_marker_pz	    ground_marker_px	    ground_marker_py	    ground_marker_pz	    ground_marker_px	    ground_marker_py	    ground_marker_pz	    ground_marker_px	    ground_marker_py	    ground_marker_pz	    ground_marker_px	    ground_marker_py	    ground_marker_pz	    ground_marker_px	    ground_marker_py	    ground_marker_pz	    ground_marker_px	    ground_marker_py	    ground_marker_pz	    ground_marker_px	    ground_marker_py	    ground_marker_pz	    ground_marker_px	    ground_marker_py	    ground_marker_pz	    ground_marker_px	    ground_marker_py	    ground_marker_pz	    ground_marker_px	    ground_marker_py	    ground_marker_pz	    ground_marker_px	    ground_marker_py	    ground_marker_pz	    ground_marker_px	    ground_marker_py	    ground_marker_pz	    ground_marker_px	    ground_marker_py	    ground_marker_pz	    ground_marker_px	    ground_marker_py	    ground_marker_pz	    ground_marker_px	    ground_marker_py	    ground_marker_pz	    ground_marker_px	    ground_marker_py	    ground_marker_pz	    ground_marker_px	    ground_marker_py	    ground_marker_pz	    ground_marker_px	    ground_marker_py	    ground_marker_pz	    ground_marker_px	    ground_marker_py	    ground_marker_pz	    ground_marker_px	    ground_marker_py	    ground_marker_pz	    ground_marker_px	    ground_marker_py	    ground_marker_pz	    ground_marker_px	    ground_marker_py	    ground_marker_pz	
          0.61666662	          1.17063403	          0.85281503	         -0.29970440	         -3.63316441	         -3.13631320	         10.30377960	         28.85586548	         -1.98920703	          7.27604771	        -17.22799492	         -5.55360460	          0.00000000	          0.00000000	         -5.47462606	         -7.20142698	         16.29496765	        -30.87523270	         -4.16226959	          0.00000000	          0.00000000	         -2.37556386	         -0.85741061	         -6.27237511	       -107.53795518	        516.03291616	          1.33637001	          1.30676892	          0.00000000	         -0.22868480	         69.28487887	        177.91573649	        -12.63734140	          0.82149249	          0.00000000	         -0.36201013	          0.00000000	          0.54315051	          0.00000000	          0.00000000	         -0.67377484	          0.00000000	          1.09915960	          0.79572773	         -0.27748847	          1.09903634	          0.77856284	         -0.20843393	          1.06573212	          0.77783048	         -0.35686946	          1.25905120	          0.43395483	         -0.22414097	          0.99574536	          0.40150014	         -0.39121220	          1.30452991	          0.06666157	         -0.23569617	          0.75521475	          0.13411498	         -0.36392352	          1.17063403	          0.85281503	         -0.29970440	          1.19259524	          0.85324281	         -0.18418072	          1.14867270	          0.85238731	         -0.41522810	          0.98677492	          0.91106313	         -0.22437209	          0.97363108	          0.90671492	         -0.27711439	          1.27550387	          0.43907019	         -0.16875920	          1.00232100	          0.40552318	         -0.44869763	          1.25042152	          0.43185392	         -0.26814088	          1.03154862	          0.40340027	         -0.32928020	          1.29514253	          0.06427824	         -0.19688642	          0.73954403	          0.14461187	         -0.39919740	          1.31690526	          0.07284102	         -0.26900429	          0.76855040	          0.13928786	         -0.34037009	          1.06745946	          1.35252059	         -0.28324419	          1.19668603	          1.29283488	         -0.24403921	          1.18812680	          1.28967690	         -0.35018912	          1.18882573	          1.28809619	         -0.29631627	          1.22965264	          1.21911061	         -0.30127326	          1.33410645	          0.62652391	         -0.26908669	          1.06634104	          0.54451507	         -0.52414513	          1.27520072	          0.64773726	         -0.19110373	          1.01443183	          0.59174204	         -0.45893180	          1.30377507	          0.56530458	         -0.19431540	          1.01434696	          0.50439161	         -0.45503971	          1.28630066	          0.13892354	         -0.12595397	          0.90806472	          0.16549850	         -0.37969083	          1.28690064	          0.14777727	         -0.16931753	          0.87276429	          0.19282265	         -0.38154486	          1.40622497	          0.04253154	         -0.21004452	          0.81023294	          0.04591629	         -0.38048580	
          0.62499994	          1.18178904	          0.85416019	         -0.29768348	         -3.43192196	         -3.24051046	         10.10914898	         28.50701904	         -1.66354859	          6.46749258	        -18.45956612	         -4.57675409	          0.00000000	          0.00000000	         -4.84036303	         -7.89033651	         16.16317749	        -32.81639862	         -8.43250656	          0.00000000	          0.00000000	         -2.55964327	         -0.91228670	         -5.96118355	       -119.16658092	        566.90547059	         -6.37575953	          1.31157715	          0.00000000	         -0.22754065	         42.02895491	        109.17259745	         -9.53861495	          0.82544238	          0.00000000	         -0.36096838	          0.00000000	          0.89679980	          0.00000000	          0.00000000	         -0.37746246	          0.00000000	          1.11049795	          0.79689229	         -0.27621445	          1.11021256	          0.77988589	         -0.20641449	          1.07732499	          0.77863598	         -0.35493943	          1.26916647	          0.43466422	         -0.22249950	          1.01204395	          0.40113834	         -0.39383495	          1.30533481	          0.06643438	         -0.23559615	          0.76681751	          0.13953578	         -0.36671841	          1.18178904	          0.85416019	         -0.29768348	          1.20339096	          0.85497469	         -0.18229158	          1.16018713	          0.85334569	         -0.41307536	          0.99756676	          0.91201633	         -0.22353357	          0.98433292	          0.90727258	         -0.27635568	          1.28490400	          0.43931842	         -0.16686974	          1.01869917	          0.40590370	         -0.45125446	          1.26038730	          0.43338624	         -0.26668754	          1.05040801	          0.40103281	         -0.33413169	          1.29606903	          0.06414269	         -0.19675171	          0.75071830	          0.15102319	         -0.40148702	          1.31737709	          0.07197471	         -0.26912314	          0.78058743	          0.14442483	         -0.34311488	          1.07787311	          1.35377932	         -0.28183061	          1.20768261	          1.29432595	         -0.24276263	          1.19881880	          1.29076684	         -0.34911019	          1.19941688	          1.28928244	         -0.29488465	          1.24063241	          1.22046268	         -0.29994294	          1.34543061	          0.62773144	         -0.26507035	          1.08123362	          0.54590040	         -0.52572715	          1.28614104	          0.64832461	         -0.18772250	          1.02891886	          0.59141982	         -0.45996067	          1.31392038	          0.56593388	         -0.19116774	          1.03066182	          0.50419796	         -0.45780823	          1.28948748	          0.13814238	         -0.12549841	          0.91984791	          0.16712765	         -0.38488743	          1.28995705	          0.14708854	         -0.16922066	          0.88580579	          0.19500878	         -0.38658082	          1.40713298	          0.04127535	         -0.20962743	          0.81391245	          0.04678365	         -0.38074112	
          0.63333327	          1.19281256	          0.85562360	         -0.29565316	         -3.22956181	         -3.31676745	          9.89680195	         28.05196762	         -1.36010659	          5.53154755	        -19.53688431	         -3.52954030	          0.00000000	          0.00000000	         -4.11608315	         -8.47172928	         15.84599590	        -34.83002090	        -12.97298050	          0.00000000	          0.00000000	         -2.57561183	         -1.32029939	         -5.46852160	       -125.38995498	        610.68180368	        -12.82590446	          1.31501355	          0.00000000	         -0.22655394	         18.93333991	         62.11360403	         -5.53378589	          0.83397198	          0.00000000	         -0.36013452	          0.00000000	          1.17506348	          0.00000000	          0.00000000	         -0.16668393	          0.00000000	          1.12134576	          0.79785609	         -0.27534854	          1.12122071	          0.78128761	         -0.20444635	          1.08881652	          0.77957946	         -0.35307294	          1.27852440	          0.43519482	         -0.22071844	          1.02903640	          0.40091607	         -0.39607760	          1.30586433	          0.06629226	         -0.23543589	          0.77957487	          0.14472881	         -0.36951399	          1.19281256	          0.85562360	         -0.29565316	          1.21400774	          0.85677761	         -0.18036789	          1.17161739	          0.85446960	         -0.41093841	          1.00819731	          0.91303563	         -0.22289369	          0.99486011	          0.90792757	         -0.27579758	          1.29339898	          0.43932694	         -0.16481072	          1.03556442	          0.40640098	         -0.45344749	          1.26759624	          0.43545508	         -0.26695871	          1.07074952	          0.40019882	         -0.33793890	          1.29665351	          0.06405926	         -0.19657491	          0.76316202	          0.15715471	         -0.40380993	          1.31627870	          0.07256532	         -0.26934147	          0.79358536	          0.14926066	         -0.34601355	          1.08797705	          1.35478044	         -0.28008413	          1.21823764	          1.29611361	         -0.24131045	          1.20874345	          1.29161239	         -0.34761870	          1.20994711	          1.29057372	         -0.29347283	          1.25110376	          1.22187924	         -0.29808190	          1.35665834	          0.62843519	         -0.26061511	          1.09598911	          0.54736257	         -0.52713668	          1.29627073	          0.64870560	         -0.18375982	          1.04330170	          0.59128326	         -0.46138668	          1.32247031	          0.56518883	         -0.18804701	          1.04742742	          0.50430775	         -0.46027461	          1.29206681	          0.13737829	         -0.12493542	          0.93257374	          0.16885157	         -0.38970342	          1.29152513	          0.14640446	         -0.16799116	          0.89946431	          0.19727640	         -0.39092728	          1.40778983	          0.04035756	         -0.20909205	          0.81835651	          0.04804729	         -0.38091895	
          0.64166659	          1.20367575	          0.85715878	         -0.29366452	         -3.04115772	         -3.36223388	          9.66484642	         27.50999451	         -1.08473945	          4.51129198	        -20.44480705	         -2.46196032	          0.00000000	          0.00000000	         -3.29423714	         -8.92466450	         15.36713409	        -36.90857697	        -17.57618523	          0.00000000	          0.00000000	         -2.49410987	         -1.51971030	         -5.08736134	       -126.14629436	        644.54934203	        -18.10683408	          1.31746863	          0.00000000	         -0.22565842	          4.38117841	         36.71954824	         -2.67754727	          0.84755719	          0.00000000	         -0.35975677	          0.00000000	          1.47810962	          0.00000000	          0.00000000	         -0.03462930	          0.00000000	          1.13144326	          0.79835534	         -0.27447701	          1.13200939	          0.78273636	         -0.20258689	          1.10016131	          0.78064424	         -0.35132867	          1.28707647	          0.43558994	         -0.21885063	          1.04665399	          0.40084022	         -0.39787054	          1.30619550	          0.06620849	         -0.23524632	          0.79334480	          0.14969788	         -0.37216988	          1.20367575	          0.85715878	         -0.29366452	          1.22441232	          0.85859483	         -0.17845982	          1.18293929	          0.85572278	         -0.40886924	          1.01864231	          0.91412318	         -0.22242838	          1.00520825	          0.90869272	         -0.27540872	          1.30096805	          0.43916228	         -0.16265222	          1.05287039	          0.40699062	         -0.45520753	          1.27412844	          0.43789411	         -0.26644859	          1.08904552	          0.39944643	         -0.34024510	          1.29698074	          0.06400657	         -0.19638455	          0.77676725	          0.16294865	         -0.40607572	          1.31567883	          0.07395446	         -0.26906148	          0.80708647	          0.15339765	         -0.34904966	          1.09793746	          1.35571110	         -0.27839988	          1.22853839	          1.29758406	         -0.23978062	          1.21870482	          1.29255939	         -0.34620616	          1.22038984	          1.29196048	         -0.29211462	          1.26143575	          1.22318304	         -0.29640087	          1.36769557	          0.62860727	         -0.25586110	          1.11059785	          0.54886806	         -0.52827907	          1.30683410	          0.64916623	         -0.17937547	          1.05825937	          0.59106708	         -0.46165213	          1.33105969	          0.56475753	         -0.18461901	          1.06321907	          0.50464624	         -0.46136403	          1.29411530	          0.13668112	         -0.12430505	          0.94619137	          0.17067857	         -0.39382663	          1.29292822	          0.14656059	         -0.16602534	          0.91388506	          0.20030160	         -0.39469248	          1.40824676	          0.03970652	         -0.20851474	          0.82372838	          0.04978349	         -0.38106132	
